# xmcd CD database file
#
# Track frame offsets:
#	150
#	13747
#	24481
#	37683
#	52130
#	66188
#	81425
#	95458
#	108877
#	125252
#	138265
#	153012
#	165997
#	179392
#	192741
#	208267
#
# Disc length: 2961 seconds
#
# Revision: 4
# Processed by: cddbd v1.5.2PL0 Copyright (c) Steve Scherf et al.
# Submitted via: CDex 1.51
#
DISCID=d20b8f10
DTITLE=Various Artist - Worried Life Blues
DYEAR=2003
DGENRE=Blues
TTITLE0=Sonny Boy Williamson - Good Morning, School Girl
TTITLE1=Arthur Crudup - My Baby Left Me
TTITLE2=Big Maceo - Worried Life Blues
TTITLE3=St. Louis Jimmy - Going Down Slow
TTITLE4=Memphis Slim - Grinder Man Blues
TTITLE5=Big Joe Williams - Baby, Please Don't Go
TTITLE6=Leadbelly - The Midnight Special
TTITLE7=Tampa Red - Sweet Little Angel
TTITLE8=Tommy Johnson - Canned Heat Blues
TTITLE9=Robert Petway - Catfish Blues
TTITLE10=Alberta Hunter - Beale Street Blues
TTITLE11=Big Bill Broonzy - Keep Your Hands Off Her
TTITLE12=Lil Green - Why Don't You Do Right
TTITLE13=Sleepy John Estes - The Girl I Love, She Got Long, Curly Hair
TTITLE14=Bessie Smith - Down Hearted Blues
TTITLE15=Johnny Moore's Three Blazers - How Blue Can You Get (Downhearted)
EXTD=YEAR: 2003
EXTT0=
EXTT1=
EXTT2=
EXTT3=
EXTT4=
EXTT5=
EXTT6=
EXTT7=
EXTT8=
EXTT9=
EXTT10=
EXTT11=
EXTT12=
EXTT13=
EXTT14=
EXTT15=
PLAYORDER=
